<svg xmlns="http://www.w3.org/2000/svg" version="1.1" xmlns:xlink="http://www.w3.org/1999/xlink" viewBox="0 0 14.00963272663621 9.95843997346705"><g transform="matrix(0.832939423631502,0,0,0.832939423631502,2.0020600198606573,6.520772455575386)"><rect width="16.00697211831148" height="16.00697211831148" x="-1.997339391675272" y="-9.85422385005163" fill="#c84449"></rect><g transform="matrix(1,0,0,1,0,0)" clip-path="url(#SvgjsClipPath23556)"><path d=" M 0 -5.2765624980527175 L 5.5812880817917785 -5.2765624980527175 L 5.5812880817917785 -0.8047255837390606 L 0 -0.8047255837390606 Z" fill="#ffffff" transform="matrix(1,0,0,1,0,0)" fill-rule="nonzero" mask="url(#maskedMgText-17816aa2-667e-45ae-8591-6039546dfa2c)"></path></g><g><path d=" M 0.3375 0.008999999999999897 L 0.6645 0.008999999999999897 L 1.0035 1.0739999999999998 L 0.7065 1.0739999999999998 L 0.642 0.8654999999999998 L 0.3585 0.8654999999999998 L 0.2955 1.0739999999999998 L -0.003 1.0739999999999998 L 0.3375 0.008999999999999897 M 0.5955 0.6704999999999999 L 0.501 0.2954999999999999 L 0.402 0.6704999999999999 L 0.5955 0.6704999999999999 M 1.0964882812499999 1.0739999999999998 L 1.0964882812499999 0.008999999999999897 L 1.38898828125 0.008999999999999897 L 1.38898828125 0.8189999999999998 L 1.87198828125 0.8189999999999998 L 1.87198828125 1.0739999999999998 L 1.0964882812499999 1.0739999999999998 M 1.9065629882812498 0.5324999999999999 Q 1.9065629882812498 0.43499999999999983 1.9433129882812499 0.34124999999999983 Q 1.98006298828125 0.24749999999999983 2.05056298828125 0.17099999999999982 Q 2.12106298828125 0.0944999999999998 2.22231298828125 0.04874999999999985 Q 2.32356298828125 0.0029999999999998916 2.45106298828125 0.0029999999999998916 Q 2.60406298828125 0.0029999999999998916 2.71806298828125 0.06674999999999986 Q 2.83206298828125 0.13049999999999984 2.8875629882812497 0.23549999999999982 L 2.66406298828125 0.39449999999999985 Q 2.64456298828125 0.34199999999999986 2.6078129882812497 0.3134999999999998 Q 2.57106298828125 0.2849999999999998 2.52831298828125 0.2737499999999998 Q 2.48556298828125 0.26249999999999984 2.44506298828125 0.26249999999999984 Q 2.38206298828125 0.26249999999999984 2.33631298828125 0.2872499999999998 Q 2.2905629882812497 0.31199999999999983 2.26131298828125 0.3524999999999998 Q 2.2320629882812497 0.3929999999999998 2.21781298828125 0.4424999999999998 Q 2.20356298828125 0.4919999999999999 2.20356298828125 0.5414999999999999 Q 2.20356298828125 0.5969999999999998 2.22006298828125 0.6479999999999999 Q 2.23656298828125 0.6989999999999998 2.2680629882812497 0.7387499999999998 Q 2.29956298828125 0.7784999999999999 2.34531298828125 0.8009999999999998 Q 2.39106298828125 0.8234999999999999 2.44806298828125 0.8234999999999999 Q 2.4885629882812497 0.8234999999999999 2.53056298828125 0.8107499999999999 Q 2.57256298828125 0.7979999999999998 2.6070629882812497 0.7694999999999999 Q 2.64156298828125 0.7409999999999999 2.65956298828125 0.6929999999999998 L 2.89806298828125 0.8354999999999998 Q 2.86656298828125 0.9134999999999999 2.7930629882812497 0.9689999999999999 Q 2.71956298828125 1.0244999999999997 2.62656298828125 1.0537499999999997 Q 2.53356298828125 1.0829999999999997 2.4420629882812497 1.0829999999999997 Q 2.32356298828125 1.0829999999999997 2.22531298828125 1.03575 Q 2.1270629882812497 0.9884999999999998 2.0558129882812497 0.9097499999999998 Q 1.9845629882812499 0.8309999999999998 1.94556298828125 0.7327499999999998 Q 1.9065629882812498 0.6344999999999998 1.9065629882812498 0.5324999999999999 M 3.4695520019531245 1.0829999999999997 Q 3.348052001953125 1.0829999999999997 3.2490520019531246 1.0372499999999998 Q 3.1500520019531244 0.9914999999999998 3.078802001953125 0.9142499999999998 Q 3.0075520019531248 0.8369999999999999 2.9693020019531247 0.7402499999999999 Q 2.9310520019531245 0.6434999999999998 2.9310520019531245 0.5399999999999998 Q 2.9310520019531245 0.4334999999999999 2.9715520019531247 0.3374999999999998 Q 3.0120520019531245 0.24149999999999983 3.0848020019531246 0.16574999999999984 Q 3.1575520019531247 0.08999999999999986 3.2573020019531245 0.046499999999999764 Q 3.3570520019531247 0.0029999999999998916 3.4755520019531247 0.0029999999999998916 Q 3.5970520019531245 0.0029999999999998916 3.6960520019531247 0.04874999999999985 Q 3.795052001953125 0.0944999999999998 3.865552001953125 0.17249999999999988 Q 3.936052001953125 0.25049999999999983 3.9743020019531246 0.34724999999999984 Q 4.012552001953125 0.44399999999999984 4.012552001953125 0.5459999999999998 Q 4.012552001953125 0.6509999999999998 3.9728020019531245 0.7469999999999999 Q 3.9330520019531248 0.8429999999999999 3.8603020019531247 0.9187499999999998 Q 3.7875520019531246 0.9944999999999998 3.6885520019531244 1.0387499999999998 Q 3.5895520019531246 1.0829999999999997 3.4695520019531245 1.0829999999999997 M 3.2280520019531247 0.5429999999999998 Q 3.2280520019531247 0.5969999999999998 3.243052001953125 0.6472499999999999 Q 3.2580520019531245 0.6974999999999998 3.2880520019531247 0.7372499999999998 Q 3.3180520019531246 0.7769999999999999 3.3638020019531245 0.8002499999999999 Q 3.4095520019531245 0.8234999999999999 3.4725520019531246 0.8234999999999999 Q 3.535552001953125 0.8234999999999999 3.582052001953125 0.7994999999999999 Q 3.6285520019531248 0.7754999999999999 3.6578020019531245 0.7342499999999998 Q 3.6870520019531248 0.6929999999999998 3.701302001953125 0.6427499999999998 Q 3.7155520019531245 0.5924999999999998 3.7155520019531245 0.5399999999999998 Q 3.7155520019531245 0.4859999999999999 3.700552001953125 0.4364999999999998 Q 3.6855520019531247 0.3869999999999998 3.655552001953125 0.34724999999999984 Q 3.6255520019531247 0.3074999999999998 3.5790520019531247 0.2849999999999998 Q 3.5325520019531247 0.26249999999999984 3.4710520019531246 0.26249999999999984 Q 3.4080520019531244 0.26249999999999984 3.3623020019531245 0.28649999999999987 Q 3.3165520019531245 0.3104999999999998 3.2865520019531247 0.35024999999999984 Q 3.2565520019531244 0.3899999999999998 3.242302001953125 0.4402499999999998 Q 3.2280520019531247 0.4904999999999998 3.2280520019531247 0.5429999999999998 M 4.141573974609375 1.0739999999999998 L 4.141573974609375 0.008999999999999897 L 4.434073974609375 0.008999999999999897 L 4.434073974609375 0.8189999999999998 L 4.917073974609375 0.8189999999999998 L 4.917073974609375 1.0739999999999998 L 4.141573974609375 1.0739999999999998 M 5.78260693359375 0.8189999999999998 L 5.78260693359375 1.0739999999999998 L 5.02360693359375 1.0739999999999998 L 5.02360693359375 0.008999999999999897 L 5.76910693359375 0.008999999999999897 L 5.76910693359375 0.2639999999999998 L 5.31610693359375 0.2639999999999998 L 5.31610693359375 0.4139999999999998 L 5.70310693359375 0.4139999999999998 L 5.70310693359375 0.6509999999999998 L 5.31610693359375 0.6509999999999998 L 5.31610693359375 0.8189999999999998 L 5.78260693359375 0.8189999999999998 M 6.2160842285156255 0.5504999999999999 L 6.2160842285156255 1.0739999999999998 L 5.923584228515625 1.0739999999999998 L 5.923584228515625 0.008999999999999897 L 6.151584228515625 0.008999999999999897 L 6.579084228515625 0.5504999999999999 L 6.579084228515625 0.008999999999999897 L 6.8715842285156254 0.008999999999999897 L 6.8715842285156254 1.0739999999999998 L 6.6390842285156255 1.0739999999999998 L 6.2160842285156255 0.5504999999999999 M 7.704126708984376 0.3569999999999999 Q 7.704126708984376 0.3569999999999999 7.678626708984376 0.34199999999999986 Q 7.6531267089843755 0.32699999999999985 7.611126708984376 0.3082499999999998 Q 7.569126708984375 0.28949999999999987 7.519626708984376 0.27449999999999986 Q 7.470126708984376 0.25949999999999984 7.422126708984376 0.25949999999999984 Q 7.384626708984375 0.25949999999999984 7.360626708984375 0.27149999999999985 Q 7.336626708984375 0.28349999999999986 7.336626708984375 0.31199999999999983 Q 7.336626708984375 0.33899999999999986 7.360626708984375 0.3554999999999998 Q 7.384626708984375 0.3719999999999998 7.428876708984375 0.38549999999999984 Q 7.473126708984376 0.3989999999999998 7.5346267089843755 0.41849999999999987 Q 7.633626708984376 0.4484999999999998 7.705626708984376 0.4874999999999998 Q 7.777626708984375 0.5264999999999999 7.8166267089843755 0.5872499999999998 Q 7.855626708984375 0.6479999999999999 7.855626708984375 0.7484999999999998 Q 7.855626708984375 0.8444999999999998 7.821126708984376 0.9097499999999998 Q 7.786626708984375 0.9749999999999999 7.728126708984376 1.0139999999999998 Q 7.669626708984375 1.053 7.597626708984375 1.07025 Q 7.525626708984375 1.0875 7.450626708984375 1.0875 Q 7.374126708984376 1.0875 7.290876708984375 1.0717499999999998 Q 7.2076267089843755 1.0559999999999998 7.129626708984375 1.0282499999999999 Q 7.051626708984375 1.0005 6.987126708984375 0.9629999999999999 L 7.1131267089843755 0.7064999999999999 Q 7.1131267089843755 0.7064999999999999 7.143126708984376 0.7244999999999998 Q 7.173126708984375 0.7424999999999998 7.222626708984375 0.7649999999999999 Q 7.272126708984375 0.7874999999999999 7.332876708984375 0.8054999999999999 Q 7.3936267089843755 0.8234999999999999 7.455126708984375 0.8234999999999999 Q 7.503126708984375 0.8234999999999999 7.521876708984375 0.8107499999999999 Q 7.540626708984376 0.7979999999999998 7.540626708984376 0.7769999999999999 Q 7.540626708984376 0.7454999999999998 7.507626708984375 0.7282499999999998 Q 7.474626708984375 0.7109999999999999 7.421376708984376 0.6952499999999998 Q 7.368126708984375 0.6794999999999998 7.303626708984376 0.6584999999999999 Q 7.210626708984376 0.6269999999999998 7.150626708984375 0.5872499999999998 Q 7.0906267089843755 0.5474999999999999 7.062126708984375 0.4927499999999998 Q 7.033626708984375 0.43799999999999983 7.033626708984375 0.3599999999999999 Q 7.033626708984375 0.24149999999999983 7.0891267089843755 0.1619999999999998 Q 7.144626708984375 0.0824999999999998 7.235376708984376 0.04124999999999979 Q 7.326126708984376 -2.220446049250313e-16 7.431126708984375 -2.220446049250313e-16 Q 7.509126708984375 -2.220446049250313e-16 7.5818767089843755 0.018749999999999822 Q 7.654626708984376 0.03749999999999987 7.718376708984375 0.06449999999999978 Q 7.782126708984375 0.0914999999999998 7.830126708984375 0.11549999999999983 L 7.704126708984376 0.3569999999999999" fill="#ffffff" fill-rule="nonzero"></path></g><g><path d=" M 0.0315 1.8553124999999997 Q 0.0315 1.8065624999999996 0.048375 1.7596874999999996 Q 0.06525 1.7128124999999996 0.0975 1.6741874999999997 Q 0.12975 1.6355624999999998 0.177 1.6126874999999998 Q 0.22425 1.5898124999999999 0.28425 1.5898124999999999 Q 0.3555 1.5898124999999999 0.406125 1.6224374999999998 Q 0.45675 1.6550624999999997 0.48075 1.7060624999999998 L 0.4395 1.7315624999999997 Q 0.42225 1.6963124999999997 0.396 1.6756874999999998 Q 0.36975 1.6550624999999997 0.340125 1.6460624999999998 Q 0.3105 1.6370624999999996 0.28125 1.6370624999999996 Q 0.23325 1.6370624999999996 0.1965 1.6561874999999997 Q 0.15975 1.6753124999999998 0.134625 1.7071874999999996 Q 0.1095 1.7390624999999997 0.09675 1.7784374999999997 Q 0.084 1.8178124999999996 0.084 1.8583124999999998 Q 0.084 1.9025624999999997 0.099 1.9430624999999997 Q 0.114 1.9835624999999997 0.14100000000000001 2.0146874999999995 Q 0.168 2.0458125 0.204375 2.0641874999999996 Q 0.24075 2.0825625 0.28350000000000003 2.0825625 Q 0.3135 2.0825625 0.34500000000000003 2.0720625 Q 0.3765 2.0615624999999995 0.403875 2.0398124999999996 Q 0.43125 2.0180624999999996 0.44775000000000004 1.9835624999999997 L 0.49125 2.0060624999999996 Q 0.47475 2.0458125 0.44025000000000003 2.0735624999999995 Q 0.40575 2.1013124999999997 0.363375 2.1155625 Q 0.321 2.1298125 0.2805 2.1298125 Q 0.22575 2.1298125 0.18 2.1061875 Q 0.13425 2.0825625 0.100875 2.0431874999999997 Q 0.0675 2.0038124999999996 0.0495 1.9546874999999997 Q 0.0315 1.9055624999999998 0.0315 1.8553124999999997 M 0.7991055908203124 2.1290625 Q 0.7361055908203125 2.1290625 0.6926055908203124 2.1065625 Q 0.6491055908203125 2.0840625 0.6236055908203124 2.0461875 Q 0.5981055908203124 2.0083124999999997 0.5864805908203125 1.9603124999999997 Q 0.5748555908203125 1.9123124999999996 0.5748555908203125 1.8613124999999997 L 0.5748555908203125 1.5928124999999997 L 0.6266055908203124 1.5928124999999997 L 0.6266055908203124 1.8613124999999997 Q 0.6266055908203124 1.9025624999999997 0.6352305908203124 1.9423124999999997 Q 0.6438555908203124 1.9820624999999996 0.6633555908203124 2.0135625 Q 0.6828555908203124 2.0450625 0.7158555908203125 2.0634374999999996 Q 0.7488555908203125 2.0818125 0.7983555908203124 2.0818125 Q 0.8493555908203124 2.0818125 0.8827305908203125 2.0626874999999996 Q 0.9161055908203124 2.0435624999999997 0.9352305908203125 2.0120625 Q 0.9543555908203125 1.9805624999999998 0.9626055908203124 1.9411874999999996 Q 0.9708555908203125 1.9018124999999997 0.9708555908203125 1.8613124999999997 L 0.9708555908203125 1.5928124999999997 L 1.0233555908203125 1.5928124999999997 L 1.0233555908203125 1.8613124999999997 Q 1.0233555908203125 1.9145624999999997 1.0113555908203125 1.9633124999999998 Q 0.9993555908203124 2.0120625 0.9727305908203124 2.0488125 Q 0.9461055908203124 2.0855624999999995 0.9033555908203124 2.1073125 Q 0.8606055908203125 2.1290625 0.7991055908203124 2.1290625 M 1.1497342529296875 2.1253124999999997 L 1.1497342529296875 1.5928124999999997 L 1.2022342529296874 1.5928124999999997 L 1.2022342529296874 2.1253124999999997 L 1.1497342529296875 2.1253124999999997 M 1.3368486328125 2.1253124999999997 L 1.3368486328125 1.5928124999999997 L 1.5175986328125 1.5928124999999997 Q 1.6023486328124998 1.5928124999999997 1.6589736328125 1.6284374999999998 Q 1.7155986328125 1.6640624999999998 1.7440986328124999 1.7244374999999996 Q 1.7725986328125 1.7848124999999997 1.7725986328125 1.8583124999999998 Q 1.7725986328125 1.9393124999999998 1.7414736328124998 1.9993124999999998 Q 1.7103486328125 2.0593125 1.6529736328125 2.0923125 Q 1.5955986328125 2.1253124999999997 1.5175986328125 2.1253124999999997 L 1.3368486328125 2.1253124999999997 M 1.7200986328124999 1.8583124999999998 Q 1.7200986328124999 1.7945624999999996 1.6964736328124999 1.7450624999999997 Q 1.6728486328124998 1.6955624999999996 1.6278486328125 1.6674374999999997 Q 1.5828486328125 1.6393124999999997 1.5175986328125 1.6393124999999997 L 1.3893486328125 1.6393124999999997 L 1.3893486328125 2.0788124999999997 L 1.5175986328125 2.0788124999999997 Q 1.5835986328125 2.0788124999999997 1.6285986328125 2.0495624999999995 Q 1.6735986328124999 2.0203124999999997 1.6968486328124999 1.9704374999999996 Q 1.7200986328124999 1.9205624999999997 1.7200986328124999 1.8583124999999998 M 2.020475463867187 1.5928124999999997 L 2.0647254638671875 1.5928124999999997 L 2.2859754638671874 2.1253124999999997 L 2.230475463867187 2.1253124999999997 L 2.161475463867187 1.9588124999999996 L 1.9222254638671872 1.9588124999999996 L 1.8539754638671873 2.1253124999999997 L 1.7977254638671871 2.1253124999999997 L 2.020475463867187 1.5928124999999997 M 2.149475463867187 1.9175624999999996 L 2.042225463867187 1.6543124999999996 L 1.9334754638671872 1.9175624999999996 L 2.149475463867187 1.9175624999999996 M 2.889 1.6393124999999997 L 2.6992499999999997 1.6393124999999997 L 2.6992499999999997 2.1253124999999997 L 2.64675 2.1253124999999997 L 2.64675 1.6393124999999997 L 2.457 1.6393124999999997 L 2.457 1.5928124999999997 L 2.889 1.5928124999999997 L 2.889 1.6393124999999997 M 3.186364013671875 2.1290625 Q 3.1233640136718748 2.1290625 3.079864013671875 2.1065625 Q 3.036364013671875 2.0840625 3.010864013671875 2.0461875 Q 2.985364013671875 2.0083124999999997 2.973739013671875 1.9603124999999997 Q 2.962114013671875 1.9123124999999996 2.962114013671875 1.8613124999999997 L 2.962114013671875 1.5928124999999997 L 3.013864013671875 1.5928124999999997 L 3.013864013671875 1.8613124999999997 Q 3.013864013671875 1.9025624999999997 3.022489013671875 1.9423124999999997 Q 3.031114013671875 1.9820624999999996 3.0506140136718747 2.0135625 Q 3.070114013671875 2.0450625 3.103114013671875 2.0634374999999996 Q 3.136114013671875 2.0818125 3.185614013671875 2.0818125 Q 3.2366140136718746 2.0818125 3.269989013671875 2.0626874999999996 Q 3.303364013671875 2.0435624999999997 3.3224890136718748 2.0120625 Q 3.341614013671875 1.9805624999999998 3.349864013671875 1.9411874999999996 Q 3.358114013671875 1.9018124999999997 3.358114013671875 1.8613124999999997 L 3.358114013671875 1.5928124999999997 L 3.410614013671875 1.5928124999999997 L 3.410614013671875 1.8613124999999997 Q 3.410614013671875 1.9145624999999997 3.398614013671875 1.9633124999999998 Q 3.386614013671875 2.0120625 3.359989013671875 2.0488125 Q 3.3333640136718747 2.0855624999999995 3.290614013671875 2.1073125 Q 3.247864013671875 2.1290625 3.186364013671875 2.1290625 M 4.149371337890625 1.5928124999999997 L 4.149371337890625 2.1253124999999997 L 4.097621337890625 2.1253124999999997 L 4.097621337890625 1.8763124999999996 L 3.781871337890625 1.8763124999999996 L 3.781871337890625 2.1253124999999997 L 3.729371337890625 2.1253124999999997 L 3.729371337890625 1.5928124999999997 L 3.781871337890625 1.5928124999999997 L 3.781871337890625 1.8298124999999996 L 4.097621337890625 1.8298124999999996 L 4.097621337890625 1.5928124999999997 L 4.149371337890625 1.5928124999999997 M 4.283978393554687 2.1253124999999997 L 4.283978393554687 1.5928124999999997 L 4.336478393554687 1.5928124999999997 L 4.336478393554687 2.1253124999999997 L 4.283978393554687 2.1253124999999997 M 4.327478393554687 1.5200624999999997 L 4.293728393554687 1.5073124999999998 L 4.337978393554687 1.4375624999999999 L 4.391978393554687 1.4375624999999999 L 4.327478393554687 1.5200624999999997 M 4.6848427734374996 2.1290625 Q 4.631592773437499 2.1290625 4.585842773437499 2.1061875 Q 4.540092773437499 2.0833125 4.5063427734375 2.0443124999999998 Q 4.4725927734374995 2.0053124999999996 4.4542177734375 1.9573124999999998 Q 4.4358427734375 1.9093124999999997 4.4358427734375 1.8583124999999998 Q 4.4358427734375 1.8043124999999998 4.4542177734375 1.7559374999999997 Q 4.4725927734374995 1.7075624999999997 4.5055927734375 1.6700624999999998 Q 4.538592773437499 1.6325624999999997 4.583592773437499 1.6108124999999998 Q 4.628592773437499 1.5890624999999998 4.681842773437499 1.5890624999999998 Q 4.7605927734375 1.5890624999999998 4.8100927734375 1.6213124999999997 Q 4.8595927734375 1.6535624999999996 4.885092773437499 1.7053124999999998 L 4.844592773437499 1.7323124999999997 Q 4.819092773437499 1.6828124999999998 4.7763427734374995 1.6595624999999998 Q 4.7335927734375 1.6363124999999998 4.681092773437499 1.6363124999999998 Q 4.6368427734374995 1.6363124999999998 4.6012177734375 1.6550624999999997 Q 4.5655927734374995 1.6738124999999997 4.540092773437499 1.7053124999999998 Q 4.514592773437499 1.7368124999999996 4.5014677734375 1.7765624999999998 Q 4.488342773437499 1.8163124999999998 4.488342773437499 1.8590624999999998 Q 4.488342773437499 1.9040624999999998 4.5033427734375 1.9441874999999997 Q 4.5183427734374995 1.9843124999999997 4.5460927734375 2.0154374999999995 Q 4.5738427734375 2.0465625 4.610217773437499 2.0641874999999996 Q 4.6465927734375 2.0818125 4.6885927734375 2.0818125 Q 4.7373427734375 2.0818125 4.7808427734375 2.0574375 Q 4.8243427734374995 2.0330624999999998 4.864092773437499 1.9820624999999996 L 4.864092773437499 2.0375624999999995 Q 4.7883427734375 2.1290625 4.6848427734374996 2.1290625 M 4.8558427734375 1.9040624999999998 L 4.7373427734375 1.9040624999999998 L 4.7373427734375 1.8635624999999998 L 4.9000927734375 1.8635624999999998 L 4.9000927734375 2.1253124999999997 L 4.8558427734375 2.1253124999999997 L 4.8558427734375 1.9040624999999998 M 5.174220336914062 1.5928124999999997 L 5.218470336914062 1.5928124999999997 L 5.439720336914062 2.1253124999999997 L 5.384220336914062 2.1253124999999997 L 5.315220336914062 1.9588124999999996 L 5.075970336914062 1.9588124999999996 L 5.007720336914062 2.1253124999999997 L 4.9514703369140625 2.1253124999999997 L 5.174220336914062 1.5928124999999997 M 5.3032203369140625 1.9175624999999996 L 5.195970336914062 1.6543124999999996 L 5.087220336914062 1.9175624999999996 L 5.3032203369140625 1.9175624999999996 M 5.517364379882812 2.1253124999999997 L 5.517364379882812 1.5928124999999997 L 5.698114379882812 1.5928124999999997 Q 5.782864379882812 1.5928124999999997 5.839489379882812 1.6284374999999998 Q 5.896114379882812 1.6640624999999998 5.924614379882812 1.7244374999999996 Q 5.953114379882813 1.7848124999999997 5.953114379882813 1.8583124999999998 Q 5.953114379882813 1.9393124999999998 5.921989379882812 1.9993124999999998 Q 5.890864379882812 2.0593125 5.8334893798828125 2.0923125 Q 5.776114379882812 2.1253124999999997 5.698114379882812 2.1253124999999997 L 5.517364379882812 2.1253124999999997 M 5.900614379882812 1.8583124999999998 Q 5.900614379882812 1.7945624999999996 5.876989379882812 1.7450624999999997 Q 5.853364379882812 1.6955624999999996 5.808364379882812 1.6674374999999997 Q 5.7633643798828125 1.6393124999999997 5.698114379882812 1.6393124999999997 L 5.569864379882812 1.6393124999999997 L 5.569864379882812 2.0788124999999997 L 5.698114379882812 2.0788124999999997 Q 5.7641143798828125 2.0788124999999997 5.809114379882812 2.0495624999999995 Q 5.854114379882812 2.0203124999999997 5.877364379882812 1.9704374999999996 Q 5.900614379882812 1.9205624999999997 5.900614379882812 1.8583124999999998 M 6.269259521484375 2.1290625 Q 6.213009521484374 2.1290625 6.167259521484374 2.1065625 Q 6.121509521484374 2.0840625 6.088509521484375 2.0454375 Q 6.055509521484375 2.0068124999999997 6.037509521484375 1.9584374999999996 Q 6.019509521484375 1.9100624999999998 6.019509521484375 1.8590624999999998 Q 6.019509521484375 1.8058124999999996 6.038259521484375 1.7574374999999998 Q 6.057009521484375 1.7090624999999997 6.091134521484375 1.6711874999999998 Q 6.125259521484375 1.6333124999999997 6.1710095214843745 1.6111874999999998 Q 6.2167595214843745 1.5890624999999998 6.270009521484375 1.5890624999999998 Q 6.326259521484375 1.5890624999999998 6.372009521484375 1.6123124999999998 Q 6.417759521484375 1.6355624999999998 6.4503845214843745 1.6745624999999997 Q 6.483009521484375 1.7135624999999997 6.501009521484375 1.7615624999999997 Q 6.519009521484374 1.8095624999999997 6.519009521484374 1.8598124999999996 Q 6.519009521484374 1.9130624999999997 6.500259521484375 1.9614374999999997 Q 6.481509521484375 2.0098125 6.447759521484374 2.0476875 Q 6.414009521484375 2.0855624999999995 6.368259521484375 2.1073125 Q 6.322509521484375 2.1290625 6.269259521484375 2.1290625 M 6.072009521484374 1.8590624999999998 Q 6.072009521484374 1.9025624999999997 6.086259521484375 1.9426874999999997 Q 6.1005095214843745 1.9828124999999996 6.126759521484375 2.0139375 Q 6.153009521484375 2.0450625 6.189384521484374 2.0634374999999996 Q 6.225759521484375 2.0818125 6.269259521484375 2.0818125 Q 6.315009521484375 2.0818125 6.351384521484375 2.0626874999999996 Q 6.387759521484375 2.0435624999999997 6.413634521484375 2.0116875 Q 6.439509521484375 1.9798124999999998 6.453009521484375 1.9400624999999998 Q 6.466509521484375 1.9003124999999996 6.466509521484375 1.8590624999999998 Q 6.466509521484375 1.8155624999999997 6.4522595214843745 1.7758124999999998 Q 6.438009521484375 1.7360624999999996 6.411384521484375 1.7045624999999998 Q 6.384759521484375 1.6730624999999997 6.348759521484375 1.6550624999999997 Q 6.312759521484375 1.6370624999999996 6.269259521484375 1.6370624999999996 Q 6.224259521484375 1.6370624999999996 6.187884521484374 1.6558124999999997 Q 6.151509521484375 1.6745624999999997 6.125634521484375 1.7064374999999998 Q 6.0997595214843745 1.7383124999999997 6.085884521484375 1.7780624999999997 Q 6.072009521484374 1.8178124999999996 6.072009521484374 1.8590624999999998 M 7.16924560546875 2.0788124999999997 L 7.16924560546875 2.1253124999999997 L 6.81149560546875 2.1253124999999997 L 6.81149560546875 1.5928124999999997 L 7.16249560546875 1.5928124999999997 L 7.16249560546875 1.6393124999999997 L 6.86399560546875 1.6393124999999997 L 6.86399560546875 1.8313124999999997 L 7.12424560546875 1.8313124999999997 L 7.12424560546875 1.8755624999999998 L 6.86399560546875 1.8755624999999998 L 6.86399560546875 2.0788124999999997 L 7.16924560546875 2.0788124999999997 M 7.321877197265625 1.6895624999999996 L 7.321877197265625 2.1253124999999997 L 7.269377197265625 2.1253124999999997 L 7.269377197265625 1.5928124999999997 L 7.312877197265625 1.5928124999999997 L 7.6623771972656245 2.0368125 L 7.6623771972656245 1.5935624999999995 L 7.714877197265625 1.5935624999999995 L 7.714877197265625 2.1253124999999997 L 7.666127197265625 2.1253124999999997 L 7.321877197265625 1.6895624999999996 M 8.0081103515625 2.1253124999999997 Q 8.0081103515625 2.0998124999999996 8.0126103515625 2.0739374999999995 Q 8.0171103515625 2.0480625 8.0298603515625 2.0225625 Q 8.0426103515625 1.9970624999999997 8.0673603515625 1.9734374999999997 Q 8.0921103515625 1.9498124999999997 8.1326103515625 1.9288124999999998 Q 8.1543603515625 1.9175624999999996 8.1776103515625 1.9066874999999996 Q 8.2008603515625 1.8958124999999997 8.2214853515625 1.8826874999999996 Q 8.2421103515625 1.8695624999999998 8.2544853515625 1.8526874999999996 Q 8.2668603515625 1.8358124999999998 8.2668603515625 1.8125624999999996 Q 8.2668603515625 1.7938124999999996 8.2559853515625 1.7758124999999998 Q 8.2451103515625 1.7578124999999998 8.2229853515625 1.7465624999999996 Q 8.2008603515625 1.7353124999999996 8.1678603515625 1.7353124999999996 Q 8.1438603515625 1.7353124999999996 8.1243603515625 1.7420624999999996 Q 8.1048603515625 1.7488124999999997 8.0898603515625 1.7589374999999996 Q 8.0748603515625 1.7690624999999998 8.0643603515625 1.7791874999999997 Q 8.0538603515625 1.7893124999999996 8.0471103515625 1.7960624999999997 L 8.0148603515625 1.7608124999999997 Q 8.0186103515625 1.7563124999999997 8.0317353515625 1.7446874999999997 Q 8.0448603515625 1.7330624999999997 8.0654853515625 1.7203124999999997 Q 8.0861103515625 1.7075624999999997 8.1142353515625 1.6985624999999998 Q 8.1423603515625 1.6895624999999996 8.1761103515625 1.6895624999999996 Q 8.2218603515625 1.6895624999999996 8.2544853515625 1.7056874999999998 Q 8.2871103515625 1.7218124999999997 8.304360351562499 1.7488124999999997 Q 8.3216103515625 1.7758124999999998 8.3216103515625 1.8073124999999997 Q 8.3216103515625 1.8380624999999997 8.3084853515625 1.8601874999999997 Q 8.2953603515625 1.8823124999999998 8.2747353515625 1.8984374999999998 Q 8.2541103515625 1.9145624999999997 8.2319853515625 1.9261874999999997 Q 8.2098603515625 1.9378124999999997 8.1918603515625 1.9460624999999998 Q 8.1566103515625 1.9625624999999998 8.1326103515625 1.9790624999999997 Q 8.1086103515625 1.9955624999999997 8.0943603515625 2.0124375 Q 8.0801103515625 2.0293124999999996 8.0722353515625 2.0454375 Q 8.0643603515625 2.0615624999999995 8.0613603515625 2.0788124999999997 L 8.3298603515625 2.0788124999999997 L 8.3298603515625 2.1253124999999997 L 8.0081103515625 2.1253124999999997 M 9.097861083984373 2.1253124999999997 L 9.097861083984373 1.6918124999999997 L 8.905111083984375 2.0285624999999996 L 8.872111083984374 2.0285624999999996 L 8.678611083984373 1.6918124999999997 L 8.678611083984373 2.1253124999999997 L 8.626111083984375 2.1253124999999997 L 8.626111083984375 1.5928124999999997 L 8.680111083984373 1.5928124999999997 L 8.887861083984374 1.9573124999999998 L 9.097111083984375 1.5928124999999997 L 9.150361083984373 1.5928124999999997 L 9.150361083984373 2.1253124999999997 L 9.097861083984373 2.1253124999999997 M 9.284996704101562 2.1253124999999997 L 9.284996704101562 1.5928124999999997 L 9.33749670410156 1.5928124999999997 L 9.33749670410156 2.1253124999999997 L 9.284996704101562 2.1253124999999997 M 9.524611083984373 1.6895624999999996 L 9.524611083984373 2.1253124999999997 L 9.472111083984375 2.1253124999999997 L 9.472111083984375 1.5928124999999997 L 9.515611083984375 1.5928124999999997 L 9.865111083984374 2.0368125 L 9.865111083984374 1.5935624999999995 L 9.917611083984374 1.5935624999999995 L 9.917611083984374 2.1253124999999997 L 9.868861083984374 2.1253124999999997 L 9.524611083984373 1.6895624999999996 M 10.268965576171874 2.1290625 Q 10.205965576171874 2.1290625 10.162465576171874 2.1065625 Q 10.118965576171874 2.0840625 10.093465576171875 2.0461875 Q 10.067965576171874 2.0083124999999997 10.056340576171873 1.9603124999999997 Q 10.044715576171875 1.9123124999999996 10.044715576171875 1.8613124999999997 L 10.044715576171875 1.5928124999999997 L 10.096465576171875 1.5928124999999997 L 10.096465576171875 1.8613124999999997 Q 10.096465576171875 1.9025624999999997 10.105090576171873 1.9423124999999997 Q 10.113715576171874 1.9820624999999996 10.133215576171875 2.0135625 Q 10.152715576171873 2.0450625 10.185715576171875 2.0634374999999996 Q 10.218715576171874 2.0818125 10.268215576171874 2.0818125 Q 10.319215576171874 2.0818125 10.352590576171874 2.0626874999999996 Q 10.385965576171873 2.0435624999999997 10.405090576171874 2.0120625 Q 10.424215576171875 1.9805624999999998 10.432465576171873 1.9411874999999996 Q 10.440715576171874 1.9018124999999997 10.440715576171874 1.8613124999999997 L 10.440715576171874 1.5928124999999997 L 10.493215576171874 1.5928124999999997 L 10.493215576171874 1.8613124999999997 Q 10.493215576171874 1.9145624999999997 10.481215576171873 1.9633124999999998 Q 10.469215576171875 2.0120625 10.442590576171874 2.0488125 Q 10.415965576171875 2.0855624999999995 10.373215576171875 2.1073125 Q 10.330465576171875 2.1290625 10.268965576171874 2.1290625 M 10.99759423828125 1.6393124999999997 L 10.80784423828125 1.6393124999999997 L 10.80784423828125 2.1253124999999997 L 10.75534423828125 2.1253124999999997 L 10.75534423828125 1.6393124999999997 L 10.56559423828125 1.6393124999999997 L 10.56559423828125 1.5928124999999997 L 10.99759423828125 1.5928124999999997 L 10.99759423828125 1.6393124999999997 M 11.27393994140625 2.1290625 Q 11.217689941406249 2.1290625 11.171939941406249 2.1065625 Q 11.126189941406249 2.0840625 11.09318994140625 2.0454375 Q 11.06018994140625 2.0068124999999997 11.04218994140625 1.9584374999999996 Q 11.024189941406249 1.9100624999999998 11.024189941406249 1.8590624999999998 Q 11.024189941406249 1.8058124999999996 11.04293994140625 1.7574374999999998 Q 11.06168994140625 1.7090624999999997 11.09581494140625 1.6711874999999998 Q 11.12993994140625 1.6333124999999997 11.17568994140625 1.6111874999999998 Q 11.22143994140625 1.5890624999999998 11.27468994140625 1.5890624999999998 Q 11.33093994140625 1.5890624999999998 11.37668994140625 1.6123124999999998 Q 11.42243994140625 1.6355624999999998 11.455064941406249 1.6745624999999997 Q 11.487689941406249 1.7135624999999997 11.50568994140625 1.7615624999999997 Q 11.52368994140625 1.8095624999999997 11.52368994140625 1.8598124999999996 Q 11.52368994140625 1.9130624999999997 11.50493994140625 1.9614374999999997 Q 11.486189941406248 2.0098125 11.452439941406249 2.0476875 Q 11.41868994140625 2.0855624999999995 11.37293994140625 2.1073125 Q 11.32718994140625 2.1290625 11.27393994140625 2.1290625 M 11.076689941406249 1.8590624999999998 Q 11.076689941406249 1.9025624999999997 11.09093994140625 1.9426874999999997 Q 11.10518994140625 1.9828124999999996 11.13143994140625 2.0139375 Q 11.157689941406248 2.0450625 11.19406494140625 2.0634374999999996 Q 11.23043994140625 2.0818125 11.27393994140625 2.0818125 Q 11.31968994140625 2.0818125 11.356064941406249 2.0626874999999996 Q 11.392439941406248 2.0435624999999997 11.41831494140625 2.0116875 Q 11.444189941406249 1.9798124999999998 11.45768994140625 1.9400624999999998 Q 11.47118994140625 1.9003124999999996 11.47118994140625 1.8590624999999998 Q 11.47118994140625 1.8155624999999997 11.45693994140625 1.7758124999999998 Q 11.442689941406249 1.7360624999999996 11.41606494140625 1.7045624999999998 Q 11.38943994140625 1.6730624999999997 11.353439941406249 1.6550624999999997 Q 11.31743994140625 1.6370624999999996 11.27393994140625 1.6370624999999996 Q 11.22893994140625 1.6370624999999996 11.19256494140625 1.6558124999999997 Q 11.15618994140625 1.6745624999999997 11.13031494140625 1.7064374999999998 Q 11.10443994140625 1.7383124999999997 11.09056494140625 1.7780624999999997 Q 11.076689941406249 1.8178124999999996 11.076689941406249 1.8590624999999998 M 11.93504736328125 1.6925624999999997 Q 11.923797363281249 1.6798124999999997 11.908797363281248 1.6696874999999998 Q 11.89379736328125 1.6595624999999998 11.875047363281249 1.6520624999999998 Q 11.85629736328125 1.6445624999999997 11.83492236328125 1.6400624999999998 Q 11.81354736328125 1.6355624999999998 11.78954736328125 1.6355624999999998 Q 11.71979736328125 1.6355624999999998 11.687172363281249 1.6621874999999997 Q 11.65454736328125 1.6888124999999996 11.65454736328125 1.7345624999999998 Q 11.65454736328125 1.7660624999999996 11.66992236328125 1.7840624999999997 Q 11.685297363281249 1.8020624999999997 11.71829736328125 1.8133124999999997 Q 11.75129736328125 1.8245624999999996 11.80229736328125 1.8365624999999997 Q 11.85929736328125 1.8485624999999997 11.90054736328125 1.8650624999999996 Q 11.94179736328125 1.8815624999999998 11.964297363281249 1.9096874999999998 Q 11.98679736328125 1.9378124999999997 11.98679736328125 1.9858124999999998 Q 11.98679736328125 2.0225625 11.97254736328125 2.0495624999999995 Q 11.958297363281249 2.0765624999999996 11.93279736328125 2.0945625 Q 11.90729736328125 2.1125624999999997 11.872047363281249 2.1211874999999996 Q 11.83679736328125 2.1298125 11.79479736328125 2.1298125 Q 11.75354736328125 2.1298125 11.71567236328125 2.1211874999999996 Q 11.677797363281249 2.1125624999999997 11.64404736328125 2.0956875 Q 11.61029736328125 2.0788124999999997 11.581047363281249 2.0525624999999996 L 11.60729736328125 2.0098125 Q 11.62154736328125 2.0248125 11.641422363281249 2.0379374999999995 Q 11.66129736328125 2.0510624999999996 11.685672363281249 2.0615624999999995 Q 11.71004736328125 2.0720625 11.73817236328125 2.0776874999999997 Q 11.76629736328125 2.0833125 11.79629736328125 2.0833125 Q 11.86004736328125 2.0833125 11.89567236328125 2.0600625 Q 11.93129736328125 2.0368125 11.93129736328125 1.9910624999999997 Q 11.93129736328125 1.9580624999999996 11.913297363281249 1.9381874999999997 Q 11.89529736328125 1.9183124999999996 11.85929736328125 1.9055624999999998 Q 11.823297363281249 1.8928124999999998 11.770797363281249 1.8808124999999998 Q 11.71529736328125 1.8680624999999997 11.677047363281249 1.8523124999999996 Q 11.638797363281249 1.8365624999999997 11.61967236328125 1.8106874999999998 Q 11.60054736328125 1.7848124999999997 11.60054736328125 1.7420624999999996 Q 11.60054736328125 1.6925624999999997 11.62492236328125 1.6584374999999998 Q 11.64929736328125 1.6243124999999998 11.69204736328125 1.6066874999999996 Q 11.734797363281249 1.5890624999999998 11.79029736328125 1.5890624999999998 Q 11.825547363281249 1.5890624999999998 11.85592236328125 1.5961874999999996 Q 11.88629736328125 1.6033124999999997 11.912172363281249 1.6168124999999995 Q 11.93804736328125 1.6303124999999996 11.960547363281249 1.6505624999999997 L 11.93504736328125 1.6925624999999997" fill="#ffffff" fill-rule="nonzero"></path></g></g><defs><clipPath id="SvgjsClipPath23556"><path d=" M 0 -5.8312880817917785 h 5.5812880817917785 v 5.5812880817917785 h -5.5812880817917785 Z"></path></clipPath><mask id="maskedMgText-17816aa2-667e-45ae-8591-6039546dfa2c"><path d=" M 2.7906440408958892 -0.8932094191821012 C 4.331869099540528 -0.8932094191821012 5.5812880817917785 -1.8744543155521378 5.5812880817917785 -3.0848859586174093 C 5.5812880817917785 -4.295317601682681 4.331869099540528 -5.2765624980527175 2.7906440408958892 -5.2765624980527175 C 1.249418982251251 -5.2765624980527175 0 -4.295317601682681 0 -3.0848859586174093 C 0 -2.593405897873482 0.205990368911398 -2.1397152413126124 0.5538815840779119 -1.7741272590574906 L 0.1347132362375889 -0.8047255837390606 L 1.4375220035053946 -1.1675909864420895 C 1.8649635278761743 -0.9842722293751094 2.3255563364718954 -0.8908747580465839 2.7906440408958884 -0.8932094191821012 Z" fill="#ffffff" transform="matrix(1,0,0,1,0,0)" fill-rule="nonzero"></path><path d=" M 3.1540992561080126 -1.6867485851576 C 3.0787782293631842 -1.6741950807001287 3.010989305292839 -1.6628969266884044 2.950732483896976 -1.6528541231224272 C 2.9607752874629534 -1.7357072525417383 2.9708180910289306 -1.8173050315153023 2.9808608945949073 -1.8976474600431192 C 2.9883929972693903 -1.967947085004959 2.9952974247209996 -2.0382467099667987 3.0015741769497355 -2.1085463349286386 C 3.0078509291784714 -2.178845959890478 3.0135000061843336 -2.239102781286341 3.018521407967322 -2.2893167991162264 L 2.6908749416273183 -2.2893167991162264 L 2.540232888137662 -1.7470054065534626 C 2.4849974685247878 -1.7394733038789798 2.4197192453459366 -1.7313135259816235 2.3443982186011083 -1.7225260728613934 C 2.26907719185628 -1.7137386197411635 2.1987775668944405 -1.7055788418438071 2.133499343715589 -1.6980467391693241 C 2.053156915187772 -1.6880039356033472 1.9740698371057026 -1.67796113203737 1.89623810946938 -1.667918328471393 C 1.996666145129151 -2.0018415470401316 2.095838830343175 -2.330743363825882 2.1937561651114517 -2.6546237788286438 C 2.23392737937536 -2.790201626969335 2.2759816193078892 -2.9320562273387614 2.3199188849090393 -3.080187579936924 C 2.363856150510189 -3.228318932535086 2.407793416111339 -3.375822609910375 2.4517306817124886 -3.52269861206279 C 2.4956679473136383 -3.6695746142152053 2.5377221872461675 -3.810801539361758 2.5778934015100763 -3.946379387502449 C 2.6180646157739846 -4.08195723564314 2.6532144282549046 -4.206236929772107 2.6833428389528358 -4.319218469889349 C 2.854070499574447 -4.331771974346821 3.027936536310425 -4.346836179695787 3.204940949160772 -4.364411085936246 C 3.381945362011118 -4.3819859921767055 3.5545560483013494 -4.405837650645902 3.7227730080314663 -4.435966061343834 C 3.7152409053569837 -4.355623632816016 3.7070811274596274 -4.255823272379119 3.6982936743393973 -4.136564980033141 C 3.689506221219167 -4.017306687687162 3.681346443321811 -3.887377916552334 3.6738143406473283 -3.746778666628654 C 3.666282237972845 -3.6061794167049745 3.6587501352983622 -3.4593034145525596 3.6512180326238797 -3.306150660171409 C 3.6436859299493967 -3.1529979057902575 3.6361538272749137 -3.002355852300601 3.628621724600431 -2.854224499702439 C 3.6160682201429597 -2.5077477766762284 3.6022593652397408 -2.139930096072317 3.5871951598907756 -1.750771457890704 C 3.5118741331459473 -1.7382179534332327 3.436553106401119 -1.7281751498672555 3.3612320796562907 -1.7206430471927727 C 3.2984645573689333 -1.7106002436267955 3.229420282852841 -1.6993020896150715 3.1540992561080126 -1.6867485851576 M 2.7812601737211127 -2.6659219328403676 C 2.7913029772870894 -2.6659219328403676 2.8095055587504234 -2.6665496080632414 2.835867918111113 -2.667804958508989 C 2.862230277471803 -2.6690603089547356 2.88984798727824 -2.670315659400483 2.918721047530424 -2.6715710098462297 C 2.947594107782608 -2.6728263602919773 2.974584142366172 -2.6740817107377244 2.9996911512811146 -2.6753370611834715 C 3.0247981601960574 -2.6765924116292186 3.042373066436517 -2.6784754372978394 3.0524158700024944 -2.6809861381893336 C 3.0524158700024944 -2.696050343538299 3.0542988956711152 -2.7217850276761153 3.0580649470083565 -2.7581901906027824 C 3.061830998345598 -2.7945953535294494 3.0655970496828395 -2.8360219182391053 3.069363101020081 -2.8824698847317496 C 3.073129152357322 -2.9289178512243934 3.0775228789174376 -2.9797595442771527 3.082544280700426 -3.0349949638900267 C 3.0875656824834143 -3.0902303835029006 3.0925870842664027 -3.144210452670028 3.0976084860493915 -3.1969351713914076 C 3.1076512896153687 -3.3249809168576157 3.1202047940728397 -3.463069465889801 3.1352689994218057 -3.611200818487963 L 3.1578653074452543 -3.938847284827966 L 3.101374537386633 -3.935081233490725 L 3.01475535663008 -3.611200818487963 L 2.7812601737211127 -2.6659219328403676" fill="NA" transform="matrix(1,0,0,1,0,0)" fill-rule="nonzero"></path></mask></defs></svg>